<?xml version="1.0" encoding="utf-8"?>
<svg xmlns="http://www.w3.org/2000/svg" viewBox="0 0 500 500" xmlns:bx="https://boxy-svg.com">
  <defs>
    <linearGradient id="gradient-2" bx:pinned="true">
      <title>hi</title>
    </linearGradient>
    <linearGradient gradientUnits="userSpaceOnUse" x1="254.996" y1="10.282" x2="254.996" y2="479.161" id="gradient-0" gradientTransform="matrix(-0.704388, 0.709814, -1.830074, -1.816061, 902.437601, 541.434682)">
      <stop offset="0" style="stop-color: rgb(189, 255, 79);"/>
      <stop offset="1" style="stop-color: rgb(38, 255, 0);"/>
    </linearGradient>
  </defs>
  <path d="M 242.444 10.426 C 231.294 11.095 220.074 12.409 212.834 13.892 C 211.374 14.192 209.644 14.532 208.994 14.648 C 207.784 14.867 206.484 15.148 203.464 15.846 C 202.524 16.065 201.274 16.352 200.694 16.484 C 200.114 16.615 198.814 16.913 197.794 17.145 C 193.364 18.159 177.364 23.076 174.494 24.306 C 173.174 24.872 172.704 25.054 170.934 25.697 C 170.064 26.013 169.144 26.381 168.894 26.513 C 168.644 26.647 168.324 26.755 168.184 26.755 C 167.904 26.755 163.144 28.752 160.664 29.911 C 159.794 30.319 158.194 31.033 157.104 31.501 C 155.514 32.189 149.674 35.004 147.894 35.95 C 134.474 43.032 125.004 48.968 114.304 57.007 C 98.974 68.532 86.254 80.713 73.034 96.55 C 71.704 98.151 65.664 106.082 64.084 108.32 C 63.694 108.873 62.714 110.251 61.914 111.381 C 61.104 112.513 60.454 113.488 60.454 113.548 C 60.454 113.606 59.754 114.697 58.904 115.969 C 56.234 119.977 53.374 124.605 51.664 127.694 C 51.274 128.382 50.654 129.509 50.274 130.196 C 49.894 130.884 49.494 131.566 49.384 131.711 C 48.914 132.337 44.064 141.985 42.824 144.748 C 42.074 146.415 41.124 148.489 40.714 149.358 C 39.534 151.852 37.914 155.743 37.014 158.182 C 36.564 159.413 36.094 160.657 35.964 160.947 C 34.904 163.345 32.154 171.375 31.174 174.906 C 31.024 175.485 30.684 176.552 30.424 177.276 C 30.164 178.001 29.824 179.067 29.664 179.647 C 29.504 180.226 29.024 181.945 28.604 183.466 C 28.174 184.987 27.624 187.179 27.384 188.338 C 27.134 189.497 26.844 190.86 26.724 191.367 C 26.074 194.182 25.354 197.456 25.124 198.61 C 24.984 199.334 24.774 200.401 24.644 200.98 C 24.284 202.726 23.094 210.045 22.794 212.437 C 21.964 218.992 21.744 221.044 21.584 223.91 C 21.494 225.639 21.234 227.765 21.004 228.635 C 20.634 230.055 20.604 242.731 20.664 354.138 C 20.704 437.348 20.814 478.158 20.994 478.378 C 21.204 478.628 44.934 478.728 132.704 478.828 C 194.004 478.908 248.124 479.038 252.974 479.128 C 261.606 479.278 273.171 478.898 274.048 478.438 C 274.266 478.328 275.806 478.098 277.472 477.938 C 288.306 476.878 297.397 475.398 308.286 472.928 C 310.485 472.428 314.021 471.578 314.87 471.348 C 317.679 470.598 321.598 469.468 323.561 468.838 C 332.256 466.058 334.853 465.178 337.125 464.228 C 337.415 464.108 338.363 463.758 339.232 463.438 C 340.101 463.118 341.018 462.758 341.27 462.618 C 341.521 462.488 341.842 462.378 341.983 462.378 C 342.264 462.378 347.019 460.388 349.504 459.228 C 350.373 458.818 351.973 458.098 353.06 457.628 C 355.147 456.728 361.679 453.508 365.438 451.528 C 367.558 450.408 368.123 450.098 370.969 448.478 C 389.646 437.828 405.675 425.578 421.011 410.238 C 431.486 399.758 439.54 390.108 448.055 377.848 C 451.673 372.638 455.542 366.568 458.21 361.908 C 458.79 360.888 459.506 359.648 459.798 359.138 C 461.355 356.438 468.155 343.048 468.155 342.668 C 468.155 342.578 468.495 341.778 468.911 340.878 C 470.476 337.518 472.707 332.248 473.278 330.558 C 473.523 329.838 473.879 328.888 474.068 328.458 C 474.258 328.018 474.561 327.248 474.74 326.738 C 474.919 326.238 475.269 325.348 475.519 324.768 C 476.831 321.728 481.846 305.151 482.799 300.705 C 483.036 299.598 483.326 298.278 483.442 297.771 C 486.086 286.278 487.461 278.003 488.409 267.878 C 489.283 258.537 489.355 256.791 489.352 244.437 C 489.349 232.144 489.241 229.497 488.409 221.128 C 488.053 217.548 486.916 208.543 486.565 206.511 C 485.928 202.824 484.688 196.626 484.063 194.001 C 483.481 191.562 483.286 190.705 482.799 188.433 C 482.562 187.327 482.014 185.134 481.582 183.561 C 480.837 180.855 480.273 178.99 477.64 170.56 C 476.533 167.023 474.882 162.487 473.923 160.357 C 473.649 159.743 473.423 159.143 473.423 159.024 C 473.423 158.731 471.292 153.43 470.384 151.465 C 469.983 150.596 469.317 149.158 468.906 148.268 C 468.493 147.376 468.155 146.565 468.155 146.462 C 468.155 145.988 461.368 132.785 458.956 128.566 C 450.933 114.541 441.615 101.533 430.627 89.025 C 423.611 81.04 412.354 70.197 403.778 63.164 C 396.96 57.573 385.54 49.427 377.788 44.625 C 375.005 42.9 367.006 38.354 364.648 37.156 C 360.963 35.283 355.04 32.357 353.981 31.886 C 353.402 31.628 352.217 31.098 351.348 30.706 C 348.543 29.444 347.969 29.194 345.154 27.996 C 343.631 27.348 341.853 26.639 341.204 26.418 C 339.783 25.936 336.736 24.764 335.282 24.14 C 333.686 23.455 322.61 19.931 317.109 18.359 C 315.48 17.893 313.303 17.361 309.339 16.457 C 308.687 16.31 307.739 16.081 307.232 15.949 C 304.003 15.114 293.587 13.11 290.136 12.657 C 288.478 12.438 286.699 12.204 286.181 12.135 C 276.308 10.813 269.716 10.394 257.324 10.3 C 251.094 10.25 244.394 10.307 242.444 10.426 M 161.054 75.625 C 159.394 75.812 157.674 76.036 157.244 76.128 C 156.804 76.217 155.734 76.412 154.864 76.56 C 154.004 76.707 152.514 77.044 151.574 77.313 C 150.634 77.579 149.214 77.945 148.414 78.122 C 147.624 78.301 146.854 78.527 146.704 78.627 C 146.564 78.727 145.904 78.962 145.254 79.151 C 143.544 79.644 142.614 79.965 141.584 80.421 C 141.084 80.639 140.434 80.892 140.134 80.982 C 139.034 81.311 132.194 84.951 131.564 85.551 C 130.814 86.252 128.524 87.859 128.264 87.859 C 128.174 87.859 127.604 88.188 127.004 88.591 C 126.394 88.994 125.604 89.473 125.234 89.657 C 124.294 90.131 118.904 94.174 117.024 95.82 C 114.014 98.449 109.634 102.742 108.614 104.056 C 108.054 104.78 106.944 106.145 106.154 107.085 C 104.954 108.505 99.424 116.38 99.424 116.669 C 99.424 116.717 98.744 117.81 97.894 119.098 C 95.164 123.272 91.524 131.418 91.084 134.344 C 91.014 134.779 90.874 135.372 90.754 135.661 C 90.124 137.22 89.994 137.658 89.694 139.349 C 89.514 140.363 89.264 141.429 89.144 141.719 C 89.034 142.009 88.804 143.373 88.634 144.748 C 88.474 146.125 88.284 147.605 88.204 148.041 C 87.304 153.435 87.304 165.913 88.194 170.297 C 88.274 170.659 88.464 172.022 88.634 173.326 C 88.804 174.629 89.034 176.052 89.154 176.486 C 89.284 176.921 89.514 177.928 89.674 178.725 C 90.074 180.717 90.484 182.194 90.764 182.738 C 90.894 182.989 91.004 183.429 91.004 183.716 C 91.004 184.188 91.744 186.5 92.324 187.811 C 92.454 188.101 92.744 188.916 92.974 189.622 C 93.204 190.328 93.564 191.154 93.774 191.458 C 93.984 191.762 94.164 192.177 94.164 192.381 C 94.164 192.81 97.914 200.262 99.414 202.824 C 99.764 203.403 100.174 204.114 100.334 204.404 C 101.204 205.966 104.394 210.335 106.754 213.207 C 110.024 217.182 116.054 223.051 119.404 225.516 C 120.224 226.119 121.194 226.839 121.554 227.116 C 123.204 228.377 125.854 230.122 127.254 230.87 C 128.104 231.32 129.444 232.092 130.244 232.585 C 132.304 233.858 134.124 234.824 134.474 234.824 C 134.644 234.824 135.384 235.132 136.134 235.508 C 136.874 235.885 138.074 236.428 138.804 236.714 C 139.524 237.001 140.474 237.397 140.914 237.595 C 141.944 238.066 147.234 239.838 148.414 240.109 C 148.924 240.225 149.814 240.455 150.394 240.621 C 150.974 240.786 151.924 241.016 152.504 241.131 C 156.924 242.01 157.794 242.26 158.224 242.768 C 158.484 243.066 158.684 243.467 158.684 243.657 C 158.684 244.227 157.904 244.832 157.174 244.832 C 156.794 244.832 156.124 244.943 155.674 245.077 C 154.984 245.286 151.434 246.165 148.154 246.937 C 146.794 247.257 141.744 249.067 141.454 249.339 C 141.314 249.467 140.984 249.573 140.724 249.573 C 139.894 249.573 133.974 252.306 129.984 254.53 C 127.394 255.969 121.574 259.897 119.394 261.665 C 115.244 265.04 114.614 265.589 112.064 267.999 C 110.624 269.37 109.434 270.62 109.434 270.777 C 109.434 270.934 108.954 271.531 108.354 272.104 C 107.764 272.677 107.024 273.517 106.714 273.97 C 106.394 274.424 105.484 275.61 104.684 276.604 C 102.834 278.91 99.634 283.747 97.984 286.739 C 96.464 289.48 94.814 292.699 94.664 293.177 C 94.574 293.475 94.324 294.127 94.104 294.626 C 92.994 297.156 91.354 301.76 91.014 303.302 C 90.894 303.809 90.624 304.757 90.404 305.409 C 89.974 306.701 89.524 308.512 89.314 309.754 C 89.244 310.189 89.054 311.196 88.904 311.993 C 88.634 313.382 88.404 315.111 87.804 320.289 C 87.444 323.338 87.444 332.768 87.804 335.828 C 88.304 340.178 88.614 342.398 88.904 343.728 C 89.064 344.458 89.294 345.638 89.424 346.368 C 89.554 347.088 89.794 348.158 89.954 348.738 C 90.114 349.318 90.344 350.198 90.464 350.708 C 91.014 352.968 92.744 358.028 93.774 360.368 C 94.014 360.928 94.314 361.618 94.424 361.908 C 94.654 362.478 96.324 365.788 98.634 370.248 C 99.434 371.798 100.424 373.438 100.834 373.898 C 101.244 374.348 101.834 375.158 102.144 375.688 C 102.794 376.788 105.854 380.838 107.954 383.368 C 109.434 385.148 114.894 390.508 117.364 392.608 C 118.844 393.858 121.134 395.478 121.414 395.478 C 121.514 395.478 123.534 396.788 125.924 398.378 C 128.304 399.978 130.344 401.278 130.454 401.278 C 130.554 401.278 131.464 401.818 132.484 402.468 C 133.494 403.128 134.614 403.738 134.974 403.828 C 135.334 403.928 136.024 404.228 136.504 404.518 C 136.994 404.808 138.354 405.388 139.544 405.818 C 140.734 406.248 142.824 407.008 144.204 407.508 C 145.574 408.008 147.354 408.598 148.154 408.808 C 148.954 409.018 149.894 409.308 150.264 409.438 C 150.854 409.668 152.234 409.958 156.794 410.778 C 160.304 411.418 163.884 411.628 171.594 411.628 C 181.294 411.638 184.924 411.288 191.474 409.718 C 192.054 409.578 193.004 409.358 193.584 409.228 C 194.164 409.098 195.564 408.678 196.684 408.298 C 197.814 407.908 198.854 407.598 198.994 407.598 C 199.134 407.598 199.754 407.378 200.374 407.098 C 200.984 406.828 202.024 406.408 202.674 406.158 C 204.634 405.418 205.534 405.008 209.654 402.968 C 214.384 400.618 215.204 400.148 218.564 397.888 C 219.994 396.928 221.454 395.948 221.824 395.708 C 222.184 395.468 223.484 394.408 224.724 393.338 C 225.964 392.268 227.344 391.148 227.794 390.838 C 228.604 390.278 233.834 384.938 235.014 383.468 C 235.344 383.048 236.314 381.878 237.174 380.868 C 240.184 377.278 243.604 372.168 245.464 368.458 C 246.104 367.168 246.804 365.818 247.004 365.458 C 247.434 364.708 248.634 361.968 250.174 358.278 C 250.604 357.248 252.444 351.708 252.754 350.508 C 252.874 350.038 253.104 349.208 253.264 348.668 C 253.424 348.128 253.654 347.088 253.784 346.368 C 254.824 340.348 255.104 339.738 256.504 340.378 C 257.224 340.708 257.244 340.768 257.704 343.998 C 257.874 345.148 258.104 346.398 258.224 346.758 C 258.484 347.538 258.884 349.018 259.314 350.838 C 259.964 353.558 261.746 358.718 262.641 360.458 C 262.829 360.818 262.982 361.228 262.983 361.368 C 262.986 361.838 266.974 369.688 267.979 371.218 C 268.517 372.028 269.303 373.308 269.725 374.048 C 270.146 374.798 271.084 376.188 271.808 377.148 C 272.532 378.108 273.599 379.538 274.178 380.318 C 275.322 381.858 277.921 384.768 280.636 387.538 C 285.168 392.168 291.796 397.348 296.565 399.978 C 297.29 400.378 298.416 401.008 299.067 401.368 C 300.95 402.428 306.563 405.148 308.154 405.768 C 310.351 406.618 313.057 407.538 318.162 409.148 C 319.031 409.428 320.572 409.788 321.586 409.958 C 322.6 410.128 323.785 410.368 324.22 410.498 C 324.959 410.708 327.283 411.058 330.673 411.438 C 331.469 411.538 335.855 411.608 340.418 411.618 C 348.202 411.618 351.329 411.438 354.969 410.768 C 355.802 410.618 357.106 410.378 357.866 410.238 C 358.627 410.108 359.723 409.858 360.302 409.698 C 360.882 409.538 361.771 409.308 362.278 409.178 C 365.206 408.448 370.753 406.588 371.146 406.188 C 371.242 406.098 371.515 406.018 371.754 406.018 C 372.152 406.018 373.864 405.318 374.997 404.678 C 375.257 404.538 377.923 403.178 380.923 401.648 C 383.923 400.128 386.851 398.528 387.431 398.098 C 388.01 397.668 389.143 396.868 389.949 396.328 C 390.754 395.788 392 394.858 392.714 394.248 C 393.43 393.638 394.963 392.348 396.122 391.368 C 399.433 388.578 404.5 383.278 406.652 380.358 C 407.081 379.768 407.674 378.968 407.969 378.568 C 411.182 374.248 415.48 366.958 415.48 365.818 C 415.48 365.508 416.291 363.888 416.784 363.218 C 416.889 363.078 417.161 362.478 417.384 361.908 C 417.611 361.328 418.096 360.198 418.467 359.398 C 419.241 357.738 421.451 351.168 421.833 349.398 C 421.975 348.738 422.212 347.728 422.36 347.158 C 422.507 346.578 422.805 344.978 423.021 343.598 C 423.237 342.218 423.524 340.748 423.658 340.318 C 423.792 339.898 424.045 336.898 424.219 333.668 C 424.469 329.068 424.469 326.528 424.219 321.918 C 424.045 318.69 423.79 315.697 423.653 315.271 C 423.518 314.844 423.216 313.429 422.984 312.125 C 422.317 308.382 422.128 307.456 421.807 306.331 C 421.638 305.751 421.406 304.862 421.29 304.355 C 420.932 302.792 419.191 297.834 418.367 296.038 C 417.938 295.101 417.587 294.271 417.587 294.195 C 417.587 294.119 416.952 292.729 416.178 291.107 C 413.874 286.282 410.5 280.724 407.711 277.161 C 407.057 276.328 406.525 275.58 406.525 275.499 C 406.525 275.266 400.966 269.071 399.944 268.166 C 399.438 267.717 398.366 266.699 397.557 265.902 C 395.743 264.109 395.306 263.754 389.906 259.696 C 386.483 257.122 382.05 254.476 377.554 252.322 C 373.211 250.241 372.356 249.858 370.837 249.314 C 365.651 247.455 361.857 246.331 358.459 245.646 C 357.59 245.471 356.515 245.216 356.07 245.08 C 355.625 244.944 354.888 244.832 354.433 244.832 C 353.119 244.832 352.657 243.342 353.702 242.475 C 353.899 242.311 354.991 242.017 356.128 241.821 C 358.132 241.475 360.063 241.023 363.068 240.197 C 363.865 239.978 365.287 239.589 366.228 239.332 C 367.17 239.076 368.355 238.681 368.862 238.454 C 369.369 238.228 370.317 237.842 370.969 237.597 C 372.755 236.925 373.78 236.481 376.237 235.313 C 380.709 233.186 381.908 232.58 382.363 232.214 C 382.88 231.797 383.29 231.549 384.958 230.638 C 385.935 230.105 387.375 229.151 390.56 226.928 C 390.868 226.714 392.103 225.707 393.304 224.689 C 394.508 223.673 395.869 222.568 396.333 222.235 C 397.51 221.39 402.462 216.458 403.318 215.282 C 403.705 214.747 404.856 213.325 405.872 212.122 C 406.889 210.919 407.929 209.639 408.182 209.276 C 409.852 206.886 412.32 203.157 412.32 203.024 C 412.32 202.937 412.486 202.678 412.686 202.45 C 412.889 202.221 413.579 201.026 414.216 199.795 C 414.856 198.564 415.517 197.319 415.686 197.029 C 416.17 196.195 417.55 193.007 418.419 190.708 C 418.857 189.55 419.423 188.127 419.676 187.548 C 419.929 186.969 420.284 185.902 420.466 185.178 C 420.648 184.453 420.895 183.624 421.014 183.334 C 421.469 182.225 421.801 180.993 421.801 180.394 C 421.801 180.051 421.904 179.565 422.03 179.314 C 422.494 178.398 422.821 176.96 423.126 174.511 C 423.295 173.135 423.537 171.743 423.666 171.418 C 423.792 171.093 424.04 168.16 424.216 164.899 C 424.472 160.223 424.472 157.72 424.216 153.044 C 424.04 149.785 423.79 146.85 423.663 146.526 C 423.537 146.199 423.292 144.927 423.118 143.694 C 422.944 142.464 422.705 141.1 422.583 140.665 C 422.462 140.231 422.236 139.372 422.083 138.756 C 420.482 132.388 419.484 129.767 417.521 126.788 C 416.979 125.961 416.534 125.155 416.534 124.992 C 416.534 124.634 414.924 121.228 414.669 121.044 C 414.471 120.902 413.734 119.609 412.212 116.73 C 411.685 115.732 411.019 114.589 410.732 114.186 C 410.447 113.785 410.213 113.385 410.213 113.295 C 410.213 113.077 405.488 106.853 403.936 105.028 C 400.368 100.822 393.802 94.733 390.483 92.547 C 390.107 92.299 389.327 91.738 388.748 91.301 C 386.783 89.818 385.592 89.057 382.69 87.429 C 381.096 86.536 379.398 85.557 378.918 85.251 C 378.436 84.948 377.925 84.698 377.781 84.698 C 377.496 84.698 375.381 83.326 374.525 82.583 C 374.236 82.333 373.228 81.861 372.286 81.535 C 371.344 81.208 370.019 80.663 369.341 80.323 C 366.292 78.793 357.249 76.27 354.811 76.27 C 354.34 76.27 353.842 76.167 353.705 76.041 C 352.833 75.245 336.194 74.945 330.146 75.617 C 324.303 76.267 323.027 76.504 319.46 77.603 C 319.016 77.74 318.47 77.85 318.249 77.85 C 317.528 77.85 310.61 80.213 307.634 81.474 C 303.309 83.31 300.091 84.935 296.565 87.066 C 294.827 88.114 293.346 89.054 293.273 89.154 C 293.201 89.252 292.727 89.615 292.22 89.958 C 291.713 90.303 290.426 91.246 289.359 92.054 C 288.293 92.86 287.087 93.758 286.68 94.048 C 284.066 95.907 276.995 102.971 275.232 105.486 C 274.942 105.9 274.044 107.109 273.237 108.175 C 272.429 109.242 271.487 110.53 271.142 111.036 C 270.798 111.544 270.436 112.018 270.338 112.089 C 269.679 112.576 264.396 122.174 263.451 124.6 C 263.226 125.179 262.74 126.306 262.371 127.102 C 261.436 129.124 259.694 134.471 258.754 138.229 C 258.594 138.846 258.374 139.704 258.244 140.139 C 258.124 140.573 257.884 141.819 257.714 142.904 C 257.234 145.988 257.214 146.067 256.554 146.365 C 255.714 146.749 254.824 146.257 254.824 145.414 C 254.824 145.064 254.704 144.706 254.554 144.616 C 254.414 144.527 254.294 144.052 254.294 143.56 C 254.294 143.067 254.184 142.393 254.054 142.061 C 253.924 141.729 253.684 140.626 253.514 139.612 C 253.344 138.598 253.104 137.473 252.984 137.11 C 252.864 136.749 252.494 135.564 252.174 134.476 C 251.844 133.391 251.484 132.39 251.354 132.251 C 251.234 132.114 251.134 131.787 251.134 131.524 C 251.134 131.263 250.914 130.544 250.644 129.93 C 250.384 129.317 250.014 128.339 249.834 127.76 C 249.654 127.181 248.394 124.455 247.044 121.702 C 244.704 116.985 242.064 112.579 239.494 109.118 C 236.564 105.183 235.434 103.793 233.754 102.094 C 232.954 101.285 231.934 100.214 231.484 99.708 C 230.584 98.694 224.384 93.126 224.154 93.126 C 224.074 93.126 223.294 92.565 222.414 91.875 C 219.264 89.415 216.564 87.666 212.414 85.407 C 211.624 84.972 210.654 84.4 210.264 84.132 C 209.884 83.863 209.414 83.642 209.214 83.639 C 209.024 83.634 207.914 83.16 206.754 82.586 C 205.604 82.009 204.564 81.538 204.454 81.538 C 204.354 81.538 203.574 81.208 202.744 80.808 C 201.904 80.405 200.694 79.918 200.034 79.723 C 198.534 79.275 197.414 78.909 196.744 78.643 C 196.454 78.53 195.394 78.237 194.374 77.995 C 193.364 77.753 191.644 77.331 190.554 77.055 C 188.464 76.523 186.494 76.207 181.604 75.612 C 177.784 75.148 165.294 75.156 161.054 75.625 M 331.199 165.44 C 330.258 166.094 329.073 166.917 328.566 167.269 C 328.059 167.622 327.288 168.157 326.854 168.459 C 324.817 169.874 319.824 172.714 315.397 174.976 C 310.302 177.579 308.958 178.187 303.545 180.343 C 301.734 181.064 299.586 181.943 298.771 182.296 C 297.956 182.65 297.031 182.939 296.714 182.939 C 296.397 182.939 294.515 183.46 292.533 184.097 C 287.123 185.835 280.069 187.453 275.759 187.945 C 274.6 188.078 272.881 188.315 271.94 188.474 C 265.123 189.62 245.244 189.626 239.804 188.484 C 239.154 188.347 237.794 188.162 236.784 188.074 C 234.784 187.901 229.164 186.832 227.034 186.22 C 226.314 186.013 224.654 185.59 223.344 185.281 C 220.134 184.519 210.124 181.232 208.114 180.283 C 207.224 179.861 206.324 179.515 206.124 179.515 C 205.274 179.515 191.364 172.531 190.504 171.67 C 190.334 171.494 190.074 171.35 189.924 171.35 C 189.784 171.35 189.184 171.033 188.594 170.646 C 188.004 170.259 187.114 169.686 186.604 169.373 C 184.424 168.025 182.454 166.686 181.524 165.915 C 179.754 164.453 177.554 164.269 176.874 165.526 C 176.404 166.409 176.564 167.093 177.474 168.123 C 177.954 168.667 178.694 169.688 179.114 170.391 C 179.544 171.095 180.184 172.114 180.544 172.656 C 182.464 175.516 183.194 176.702 184.694 179.364 C 188.234 185.638 191.574 192.798 193.214 197.612 C 193.764 199.236 194.444 201.013 194.724 201.562 C 195.004 202.111 195.364 203.212 195.544 204.009 C 195.714 204.806 196.194 206.465 196.604 207.696 C 197.014 208.927 197.554 210.883 197.804 212.042 C 198.064 213.201 198.414 214.682 198.604 215.334 C 198.944 216.528 199.484 219.436 200.014 222.84 C 200.164 223.854 200.424 225.514 200.594 226.528 C 202.094 235.725 202.034 251.885 200.464 261.952 C 199.844 265.978 198.224 273.991 197.484 276.701 C 196.754 279.403 193.444 289.373 192.284 292.369 C 190.384 297.3 183.484 310.775 181.864 312.716 C 181.504 313.151 181.004 313.848 180.744 314.264 C 180.494 314.681 179.964 315.513 179.564 316.113 C 177.764 318.818 176.594 320.888 176.594 321.378 C 176.594 322.098 177.664 323.058 178.464 323.058 C 178.814 323.058 179.654 322.608 180.324 322.068 C 180.994 321.528 181.934 320.838 182.404 320.548 C 184.394 319.339 185.014 318.933 185.474 318.548 C 185.914 318.167 189.104 316.266 192.404 314.412 C 193.854 313.595 202.824 309.099 205.044 308.074 C 207.314 307.027 217.964 303.305 218.694 303.303 C 218.884 303.302 219.894 303.015 220.934 302.665 C 221.974 302.315 223.474 301.887 224.264 301.714 C 225.064 301.541 226.134 301.308 226.634 301.197 C 237.884 298.73 245.904 297.808 256.134 297.802 C 264.899 297.796 270.676 298.397 281.421 300.428 C 287.866 301.646 289.407 302.06 297.092 304.637 C 304.496 307.12 305.221 307.387 307.364 308.425 C 317.53 313.352 320.538 314.92 323.298 316.731 C 323.515 316.874 324.049 317.187 324.483 317.427 C 324.918 317.667 326.23 318.498 327.398 319.274 C 328.567 320.05 329.619 320.688 329.737 320.688 C 329.854 320.688 330.41 321.098 330.971 321.608 C 332.256 322.768 333.232 322.898 334.189 322.048 C 335.288 321.058 334.403 319.071 330.131 312.915 C 328.59 310.695 327.538 308.795 324.07 301.972 C 322.704 299.286 321.303 296.382 320.956 295.52 C 320.61 294.657 320.062 293.359 319.739 292.635 C 319.415 291.911 319 290.844 318.815 290.265 C 318.631 289.685 318.096 288.322 317.627 287.236 C 317.158 286.149 316.517 284.312 316.202 283.153 C 315.433 280.321 314.507 277.044 313.708 274.33 C 313.143 272.413 312.322 268.361 311.172 261.82 C 310.652 258.858 309.876 247.874 309.87 243.384 C 309.862 237.045 310.818 226.839 311.875 221.968 C 312.074 221.054 312.236 219.919 312.236 219.446 C 312.236 218.973 312.664 216.936 313.187 214.919 C 313.709 212.902 314.233 210.778 314.352 210.198 C 314.471 209.619 314.863 208.315 315.224 207.301 C 315.585 206.287 316.496 203.561 317.249 201.244 C 318.001 198.926 318.783 196.707 318.985 196.312 C 319.188 195.918 319.662 194.733 320.04 193.679 C 320.417 192.625 320.823 191.64 320.942 191.491 C 321.061 191.343 321.497 190.395 321.912 189.384 C 323.154 186.356 326.206 180.701 329.092 176.079 C 330.179 174.339 331.254 172.576 331.481 172.161 C 331.709 171.746 332.213 171.03 332.601 170.568 C 332.989 170.107 333.306 169.627 333.306 169.502 C 333.306 169.378 333.78 168.728 334.36 168.058 C 335.615 166.609 335.791 165.324 334.828 164.649 C 333.884 163.988 333.02 164.176 331.199 165.44" fill-rule="evenodd" style="fill: url(&quot;#gradient-0&quot;); paint-order: fill;"/>
</svg>